<svg width="25" height="22" viewBox="0 0 25 22" fill="none" xmlns="http://www.w3.org/2000/svg">
<path d="M24.849 10.3727C22.4952 5.82613 17.8355 2.75 12.5 2.75C7.1645 2.75 2.50348 5.82828 0.151048 10.3731C0.0517611 10.5675 3.05176e-05 10.7823 3.05176e-05 11.0002C3.05176e-05 11.2181 0.0517611 11.4329 0.151048 11.6273C2.50478 16.1739 7.1645 19.25 12.5 19.25C17.8355 19.25 22.4965 16.1717 24.849 11.6269C24.9483 11.4325 25 11.2177 25 10.9998C25 10.7819 24.9483 10.5671 24.849 10.3727ZM12.5 17.1875C11.2639 17.1875 10.0555 16.8246 9.02769 16.1447C7.99989 15.4648 7.19881 14.4985 6.72576 13.3679C6.25271 12.2372 6.12894 10.9931 6.3701 9.79288C6.61126 8.59262 7.20651 7.49011 8.08059 6.62478C8.95467 5.75944 10.0683 5.17014 11.2807 4.93139C12.4931 4.69265 13.7497 4.81518 14.8918 5.2835C16.0338 5.75181 17.0099 6.54488 17.6967 7.56241C18.3834 8.57994 18.75 9.77623 18.75 11C18.7504 11.8127 18.589 12.6174 18.2751 13.3683C17.9611 14.1192 17.5008 14.8015 16.9203 15.3761C16.3399 15.9507 15.6507 16.4065 14.8923 16.7173C14.1338 17.0281 13.3209 17.1879 12.5 17.1875ZM12.5 6.875C12.1281 6.88015 11.7586 6.93492 11.4015 7.03785C11.6958 7.43388 11.8371 7.92124 11.7996 8.41154C11.7622 8.90184 11.5485 9.36261 11.1973 9.71029C10.8461 10.058 10.3806 10.2695 9.8854 10.3066C9.39015 10.3437 8.89787 10.2039 8.49784 9.91246C8.27004 10.7433 8.31116 11.6239 8.61541 12.4304C8.91965 13.2369 9.4717 13.9287 10.1938 14.4083C10.916 14.8879 11.7719 15.1312 12.6411 15.104C13.5102 15.0768 14.3489 14.7805 15.039 14.2567C15.7291 13.733 16.236 13.0081 16.4882 12.1842C16.7404 11.3603 16.7253 10.4789 16.445 9.66392C16.1647 8.84897 15.6333 8.14156 14.9256 7.64127C14.2179 7.14097 13.3696 6.87297 12.5 6.875Z" fill="white"/>
</svg>
