<svg width="21" height="21" viewBox="0 0 21 21" fill="none" xmlns="http://www.w3.org/2000/svg">
<path d="M19.6875 18.375C19.6875 19.101 19.101 19.6875 18.375 19.6875H2.625C1.89902 19.6875 1.3125 19.101 1.3125 18.375V6.5625H19.6875V18.375ZM13.125 9.67969C13.125 9.40898 12.9035 9.1875 12.6328 9.1875H8.36719C8.09648 9.1875 7.875 9.40898 7.875 9.67969V10.0078C7.875 10.2785 8.09648 10.5 8.36719 10.5H12.6328C12.9035 10.5 13.125 10.2785 13.125 10.0078V9.67969ZM1.3125 1.3125H19.6875C20.4135 1.3125 21 1.89902 21 2.625V4.59375C21 4.95469 20.7047 5.25 20.3438 5.25H0.65625C0.295313 5.25 0 4.95469 0 4.59375V2.625C0 1.89902 0.586523 1.3125 1.3125 1.3125Z" fill="white"/>
</svg>
