<svg width="21" height="21" viewBox="0 0 21 21" fill="none" xmlns="http://www.w3.org/2000/svg">
<path d="M10.5 0.328125C4.88086 0.328125 0.328125 4.88086 0.328125 10.5C0.328125 16.1191 4.88086 20.6719 10.5 20.6719C16.1191 20.6719 20.6719 16.1191 20.6719 10.5C20.6719 4.88086 16.1191 0.328125 10.5 0.328125ZM10.5 18.7031C5.96777 18.7031 2.29688 15.0322 2.29688 10.5C2.29688 5.96777 5.96777 2.29688 10.5 2.29688C15.0322 2.29688 18.7031 5.96777 18.7031 10.5C18.7031 15.0322 15.0322 18.7031 10.5 18.7031ZM14.4375 7.21875V13.7812C14.4375 14.1422 14.1422 14.4375 13.7812 14.4375H11.8125C11.4516 14.4375 11.1562 14.1422 11.1562 13.7812V7.21875C11.1562 6.85781 11.4516 6.5625 11.8125 6.5625H13.7812C14.1422 6.5625 14.4375 6.85781 14.4375 7.21875ZM9.84375 7.21875V13.7812C9.84375 14.1422 9.54844 14.4375 9.1875 14.4375H7.21875C6.85781 14.4375 6.5625 14.1422 6.5625 13.7812V7.21875C6.5625 6.85781 6.85781 6.5625 7.21875 6.5625H9.1875C9.54844 6.5625 9.84375 6.85781 9.84375 7.21875Z" fill="white"/>
</svg>
