<svg width="18" height="21" viewBox="0 0 18 21" fill="none" xmlns="http://www.w3.org/2000/svg">
<path d="M13.5 11.9766V12.9609C13.5 13.2316 13.283 13.4531 13.0179 13.4531H9.96429V16.5703C9.96429 16.841 9.74732 17.0625 9.48214 17.0625H8.51786C8.25268 17.0625 8.03571 16.841 8.03571 16.5703V13.4531H4.98214C4.71696 13.4531 4.5 13.2316 4.5 12.9609V11.9766C4.5 11.7059 4.71696 11.4844 4.98214 11.4844H8.03571V8.36719C8.03571 8.09648 8.25268 7.875 8.51786 7.875H9.48214C9.74732 7.875 9.96429 8.09648 9.96429 8.36719V11.4844H13.0179C13.283 11.4844 13.5 11.7059 13.5 11.9766ZM18 4.59375V19.0312C18 20.1182 17.1362 21 16.0714 21H1.92857C0.863839 21 0 20.1182 0 19.0312V4.59375C0 3.50684 0.863839 2.625 1.92857 2.625H3.85714V0.492188C3.85714 0.221484 4.07411 0 4.33929 0H5.94643C6.21161 0 6.42857 0.221484 6.42857 0.492188V2.625H11.5714V0.492188C11.5714 0.221484 11.7884 0 12.0536 0H13.6607C13.9259 0 14.1429 0.221484 14.1429 0.492188V2.625H16.0714C17.1362 2.625 18 3.50684 18 4.59375ZM16.0714 18.7852V6.5625H1.92857V18.7852C1.92857 18.9205 2.03705 19.0312 2.16964 19.0312H15.8304C15.9629 19.0312 16.0714 18.9205 16.0714 18.7852Z" fill="white"/>
</svg>
